<?xml version="1.0" standalone="no"?>
<!DOCTYPE svg PUBLIC "-//W3C//DTD SVG 20010904//EN"
 "http://www.w3.org/TR/2001/REC-SVG-20010904/DTD/svg10.dtd">
<svg version="1.0" xmlns="http://www.w3.org/2000/svg"
 width="185.000000pt" height="185.000000pt" viewBox="0 0 185.000000 185.000000"
 preserveAspectRatio="xMidYMid meet">
<metadata>
Created by potrace 1.14, written by Peter Selinger 2001-2017
</metadata>
<g transform="translate(0.000000,185.000000) scale(0.100000,-0.100000)"
fill="#000000" stroke="none">
<path d="M540 1290 c-13 -8 -15 -48 -17 -252 -1 -134 1 -251 4 -261 7 -27 44
-38 66 -19 15 14 17 40 17 267 0 257 -3 275 -39 275 -9 0 -23 -5 -31 -10z"/>
<path d="M882 1288 c-17 -17 -17 -709 0 -726 16 -16 43 -15 61 2 21 21 19 713
-3 726 -21 13 -44 12 -58 -2z"/>
<path d="M1396 1254 c-3 -9 -6 -134 -6 -278 0 -190 3 -265 12 -274 18 -18 56
-15 66 6 11 21 10 532 -1 550 -12 18 -64 15 -71 -4z"/>
<path d="M362 1178 c-17 -17 -17 -539 0 -556 18 -18 56 -15 66 6 12 23 12 522
1 545 -11 20 -49 23 -67 5z"/>
<path d="M715 1144 c-16 -12 -18 -33 -19 -216 -2 -213 3 -238 44 -238 40 0 45
24 45 229 1 108 -2 203 -7 212 -10 23 -41 29 -63 13z"/>
<path d="M1053 1148 c-4 -7 -8 -113 -9 -235 -1 -204 1 -224 18 -240 15 -13 23
-14 43 -5 l25 12 0 228 c0 164 -3 231 -12 240 -16 16 -55 15 -65 0z"/>
<path d="M1228 1123 c-17 -21 -15 -507 1 -527 16 -20 32 -20 56 -2 17 12 18
31 18 264 0 183 -3 255 -12 266 -15 18 -48 17 -63 -1z"/>
<path d="M1593 1129 c-12 -4 -25 -18 -27 -31 -4 -20 -2 -261 2 -280 4 -14 42
-19 62 -8 19 10 20 20 20 154 0 124 -2 145 -17 158 -13 11 -25 13 -40 7z"/>
<path d="M194 1115 c-16 -11 -18 -32 -17 -170 1 -86 5 -161 10 -166 19 -19 53
-18 66 1 14 20 18 305 4 326 -11 18 -45 23 -63 9z"/>
<path d="M10 961 c-16 -31 4 -63 37 -59 34 4 52 32 37 56 -16 26 -60 28 -74 3z"/>
<path d="M1764 972 c-30 -19 -18 -72 16 -72 33 0 50 12 50 34 0 37 -36 58 -66
38z"/>
</g>
</svg>
